<svg width="149" height="36" viewBox="0 0 149 36" fill="none" xmlns="http://www.w3.org/2000/svg">
<g clip-path="url(#clip0_3372_3147)">
<path fill-rule="evenodd" clip-rule="evenodd" d="M16.7681 32.892C16.7598 32.892 16.752 32.891 16.7435 32.8908C16.7761 32.8913 16.8082 32.8899 16.8402 32.8879C16.8162 32.8893 16.7925 32.892 16.7681 32.892ZM15.2586 31.2183V31.1609C15.2586 31.8364 15.6055 32.4548 16.1309 32.7338C15.616 32.4673 15.2586 31.8897 15.2586 31.2183ZM18.2778 29.6175V6.38303C20.8558 6.79303 23.1352 8.23678 24.7657 10.322H28.4734C26.1006 5.89151 21.743 2.91406 16.7681 2.91406C11.7933 2.9142 7.43584 5.89151 5.06299 10.322H8.77057C10.4012 8.23678 12.6807 6.79303 15.2586 6.38303V29.6174C13.3518 29.3142 11.6084 28.4454 10.1695 27.1697H5.97438C8.46362 30.7636 12.375 33.0865 16.7681 33.0865C21.1615 33.0865 25.0729 30.7636 27.562 27.1697H23.3668C21.9279 28.4454 20.1846 29.3142 18.2778 29.6175Z" fill="black"/>
<path fill-rule="evenodd" clip-rule="evenodd" d="M10.1118 25.2172H13.131V11.8564H10.1118V25.2172Z" fill="black"/>
<path fill-rule="evenodd" clip-rule="evenodd" d="M25.0154 25.2169H28.0345V15.9424H25.0154V25.2169Z" fill="black"/>
<path fill-rule="evenodd" clip-rule="evenodd" d="M25.0154 14.6851H28.0345V11.6025H25.0154V14.6851Z" fill="black"/>
<path fill-rule="evenodd" clip-rule="evenodd" d="M6.3789 15.3799C4.80204 15.3799 3.51915 16.8023 3.51915 18.5506C3.51915 20.2991 4.80204 21.7215 6.3789 21.7215C7.95565 21.7215 9.23854 20.2991 9.23854 18.5506C9.23854 16.8023 7.95565 15.3799 6.3789 15.3799ZM6.3789 25.0692C3.1373 25.0692 0.5 22.1449 0.5 18.5506C0.5 14.9564 3.1373 12.0322 6.3789 12.0322C9.62052 12.0322 12.2577 14.9564 12.2577 18.5506C12.2577 22.1449 9.62052 25.0692 6.3789 25.0692Z" fill="black"/>
<path fill-rule="evenodd" clip-rule="evenodd" d="M20.646 18.5512C20.646 20.994 21.8647 23.1257 23.6626 24.242V12.8604C21.8647 13.9766 20.646 16.1086 20.646 18.5512Z" fill="black"/>
<path fill-rule="evenodd" clip-rule="evenodd" d="M32.4036 18.551C32.4036 16.1107 31.187 13.9804 29.3918 12.8633V24.2386C31.187 23.1215 32.4036 20.9914 32.4036 18.551Z" fill="black"/>
<path d="M43.9895 4.55916V18.603H40.9802V4.55916H43.9895ZM49.3702 12.5137V18.603H46.4097V8.07013H49.2313V9.92847H49.3564C49.5926 9.31587 49.9888 8.83129 50.5448 8.4747C51.1007 8.11355 51.7748 7.93298 52.5672 7.93298C53.3084 7.93298 53.9547 8.09299 54.5061 8.41299C55.0573 8.733 55.4859 9.19016 55.7917 9.78446C56.0975 10.3742 56.2504 11.0782 56.2504 11.8965V18.603H53.2899V12.4177C53.2946 11.7731 53.1277 11.2702 52.7895 10.9091C52.4513 10.5433 51.9857 10.3605 51.3926 10.3605C50.9942 10.3605 50.6421 10.4451 50.3363 10.6142C50.0351 10.7834 49.7988 11.0302 49.6275 11.3548C49.4606 11.6748 49.3749 12.0611 49.3702 12.5137ZM64.2616 8.07013V10.2645H57.8333V8.07013H64.2616ZM59.2926 5.54662H62.2532V15.3664C62.2532 15.6361 62.2949 15.8464 62.3783 15.9972C62.4616 16.1435 62.5775 16.2463 62.7258 16.3058C62.8787 16.3652 63.0547 16.395 63.254 16.395C63.3929 16.395 63.5319 16.3836 63.6709 16.3606C63.8099 16.3332 63.9164 16.3127 63.9906 16.299L64.4562 18.4727C64.308 18.5184 64.0995 18.5711 63.8308 18.6304C63.5621 18.6945 63.2354 18.7334 62.8508 18.747C62.1374 18.7744 61.5119 18.6808 60.9744 18.4659C60.4416 18.251 60.027 17.9173 59.7305 17.4647C59.434 17.0121 59.2881 16.4406 59.2926 15.7504V5.54662ZM70.9403 18.8088C69.8422 18.8088 68.8971 18.5893 68.1048 18.1505C67.3171 17.707 66.7102 17.0807 66.2839 16.2716C65.8578 15.4577 65.6446 14.4955 65.6446 13.3845C65.6446 12.3011 65.8578 11.3502 66.2839 10.5319C66.7102 9.71361 67.3103 9.07587 68.0839 8.61871C68.8623 8.16155 69.775 7.93298 70.8222 7.93298C71.5263 7.93298 72.1819 8.04498 72.7889 8.26899C73.4004 8.48843 73.9332 8.81986 74.3872 9.2633C74.8459 9.70675 75.2027 10.2645 75.4575 10.9365C75.7124 11.604 75.8397 12.3857 75.8397 13.2817V14.0841H66.826V12.2737H73.0529C73.0529 11.8531 72.9603 11.4805 72.775 11.1559C72.5897 10.8314 72.3325 10.5776 72.0036 10.3948C71.6792 10.2073 71.3016 10.1136 70.8707 10.1136C70.4213 10.1136 70.023 10.2165 69.6755 10.4222C69.3326 10.6234 69.0639 10.8954 68.8693 11.2382C68.6747 11.5765 68.5751 11.9537 68.5705 12.3697V14.0909C68.5705 14.6121 68.6677 15.0624 68.8623 15.4418C69.0616 15.8213 69.3418 16.1138 69.7032 16.3196C70.0647 16.5252 70.4931 16.6281 70.9889 16.6281C71.3179 16.6281 71.619 16.5825 71.8924 16.491C72.1658 16.3995 72.3996 16.2624 72.5942 16.0795C72.7888 15.8967 72.9371 15.6727 73.0391 15.4075L75.7772 15.5858C75.6383 16.235 75.3533 16.8019 74.9224 17.2864C74.4962 17.7664 73.9448 18.1413 73.2684 18.411C72.5966 18.6762 71.8206 18.8088 70.9403 18.8088ZM80.7323 4.55916V18.603H77.7718V4.55916H80.7323ZM86.0644 4.55916V18.603H83.104V4.55916H86.0644ZM88.436 18.603V8.07013H91.3966V18.603H88.436ZM89.9233 6.71237C89.4831 6.71237 89.1055 6.56836 88.7905 6.28035C88.48 5.98777 88.3248 5.63805 88.3248 5.23117C88.3248 4.82887 88.48 4.48373 88.7905 4.19571C89.1055 3.90314 89.4831 3.75684 89.9233 3.75684C90.3634 3.75684 90.7387 3.90314 91.0491 4.19571C91.3642 4.48373 91.5217 4.82887 91.5217 5.23117C91.5217 5.63805 91.3642 5.98777 91.0491 6.28035C90.7387 6.56836 90.3634 6.71237 89.9233 6.71237ZM100.614 14.1183V8.07013H103.574V18.603H100.732V16.6899H100.621C100.38 17.307 99.9789 17.803 99.4182 18.1778C98.8623 18.5527 98.1836 18.7401 97.382 18.7401C96.6685 18.7401 96.0408 18.5802 95.4987 18.2602C94.9566 17.9402 94.5326 17.4853 94.2268 16.8955C93.9257 16.3058 93.7728 15.5996 93.7682 14.7766V8.07013H96.7288V14.2554C96.7334 14.8772 96.9025 15.3687 97.236 15.7298C97.5697 16.091 98.0167 16.2716 98.5773 16.2716C98.9341 16.2716 99.2676 16.1915 99.5781 16.0315C99.8885 15.867 100.139 15.6247 100.329 15.3046C100.523 14.9846 100.618 14.5891 100.614 14.1183ZM105.942 18.603V8.07013H108.764V9.92847H108.889C109.111 9.31131 109.482 8.82444 110.001 8.46785C110.52 8.11127 111.141 7.93298 111.863 7.93298C112.595 7.93298 113.219 8.11355 113.733 8.4747C114.247 8.83129 114.59 9.31587 114.761 9.92847H114.873C115.09 9.32502 115.484 8.84272 116.054 8.48157C116.629 8.11584 117.307 7.93298 118.09 7.93298C119.086 7.93298 119.895 8.24613 120.516 8.87244C121.141 9.49417 121.454 10.3765 121.454 11.5194V18.603H118.5V12.0954C118.5 11.5102 118.343 11.0714 118.028 10.7788C117.713 10.4862 117.319 10.3399 116.846 10.3399C116.309 10.3399 115.89 10.5091 115.588 10.8474C115.287 11.1811 115.137 11.6222 115.137 12.1708V18.603H112.266V12.0337C112.266 11.5171 112.116 11.1057 111.815 10.7994C111.518 10.4931 111.127 10.3399 110.64 10.3399C110.311 10.3399 110.015 10.4222 109.751 10.5868C109.491 10.7468 109.285 10.9731 109.132 11.2657C108.979 11.5537 108.903 11.892 108.903 12.2805V18.603H105.942ZM130.831 18.603H127.606L132.52 4.55916H136.397L141.304 18.603H138.079L134.515 7.7684H134.403L130.831 18.603ZM130.629 13.0828H138.246V15.4007H130.629V13.0828ZM146.026 4.55916V18.603H143.017V4.55916H146.026Z" fill="black"/>
<path d="M39.9902 26.1523H40.9647L42.9138 29.3892H42.9961L44.9452 26.1523H45.9197L43.3804 30.2289V33.0866H42.5295V30.2289L39.9902 26.1523ZM48.3062 33.1949C47.8303 33.1949 47.4129 33.0832 47.0538 32.8597C46.6968 32.6363 46.4178 32.3237 46.2165 31.9218C46.0175 31.52 45.9179 31.0505 45.9179 30.5133C45.9179 29.9716 46.0175 29.4987 46.2165 29.0946C46.4178 28.6907 46.6968 28.3769 47.0538 28.1534C47.4129 27.93 47.8303 27.8182 48.3062 27.8182C48.782 27.8182 49.1984 27.93 49.5552 28.1534C49.9144 28.3769 50.1934 28.6907 50.3924 29.0946C50.5938 29.4987 50.6944 29.9716 50.6944 30.5133C50.6944 31.0505 50.5938 31.52 50.3924 31.9218C50.1934 32.3237 49.9144 32.6363 49.5552 32.8597C49.1984 33.0832 48.782 33.1949 48.3062 33.1949ZM48.3062 32.4771C48.6677 32.4771 48.965 32.3857 49.1984 32.2029C49.4317 32.02 49.6044 31.7796 49.7165 31.4816C49.8286 31.1838 49.8846 30.8609 49.8846 30.5133C49.8846 30.1658 49.8286 29.8418 49.7165 29.5416C49.6044 29.2414 49.4317 28.9987 49.1984 28.8137C48.965 28.6285 48.6677 28.536 48.3062 28.536C47.9448 28.536 47.6473 28.6285 47.4141 28.8137C47.1807 28.9987 47.008 29.2414 46.8958 29.5416C46.7838 29.8418 46.7278 30.1658 46.7278 30.5133C46.7278 30.8609 46.7838 31.1838 46.8958 31.4816C47.008 31.7796 47.1807 32.02 47.4141 32.2029C47.6473 32.3857 47.9448 32.4771 48.3062 32.4771ZM55.2522 30.9603V27.8859H56.0621V33.0866H55.2522V32.2063H55.1973C55.0738 32.4703 54.8816 32.6949 54.6208 32.8801C54.3601 33.0629 54.0307 33.1543 53.6325 33.1543C53.3031 33.1543 53.0103 33.0832 52.7542 32.941C52.498 32.7966 52.2966 32.5798 52.1502 32.2909C52.0038 31.9998 51.9307 31.6329 51.9307 31.1905V27.8859H52.7404V31.1363C52.7404 31.5156 52.8479 31.818 53.0629 32.0437C53.2803 32.2695 53.5571 32.3823 53.8933 32.3823C54.0946 32.3823 54.2994 32.3315 54.5076 32.2299C54.7181 32.1284 54.8942 31.9726 55.036 31.7627C55.1802 31.5528 55.2522 31.2853 55.2522 30.9603ZM57.5452 33.0866V27.8859H58.3276V28.6715H58.3825C58.4786 28.4142 58.6524 28.2054 58.904 28.0451C59.1557 27.8848 59.4394 27.8047 59.7551 27.8047C59.8145 27.8047 59.8889 27.8058 59.9781 27.8081C60.0674 27.8104 60.1347 27.8138 60.1805 27.8182V28.6308C60.1531 28.6241 60.0902 28.6139 59.9918 28.6003C59.8957 28.5846 59.794 28.5766 59.6865 28.5766C59.4302 28.5766 59.2015 28.6297 59.0002 28.7358C58.8012 28.8396 58.6433 28.9841 58.5266 29.1692C58.4122 29.3519 58.3551 29.5607 58.3551 29.7956V33.0866H57.5452ZM63.5836 26.8972V26.1523H68.8543V26.8972H66.6444V33.0866H65.7935V26.8972H63.5836ZM69.5105 33.0866V27.8859H70.2928V28.6715H70.3477C70.4439 28.4142 70.6177 28.2054 70.8693 28.0451C71.121 27.8848 71.4046 27.8047 71.7203 27.8047C71.7798 27.8047 71.8542 27.8058 71.9433 27.8081C72.0326 27.8104 72.1001 27.8138 72.1459 27.8182V28.6308C72.1183 28.6241 72.0555 28.6139 71.9571 28.6003C71.861 28.5846 71.7592 28.5766 71.6517 28.5766C71.3955 28.5766 71.1667 28.6297 70.9654 28.7358C70.7664 28.8396 70.6085 28.9841 70.4919 29.1692C70.3775 29.3519 70.3203 29.5607 70.3203 29.7956V33.0866H69.5105ZM76.4274 30.9603V27.8859H77.2372V33.0866H76.4274V32.2063H76.3724C76.2489 32.4703 76.0567 32.6949 75.796 32.8801C75.5352 33.0629 75.2058 33.1543 74.8077 33.1543C74.4783 33.1543 74.1855 33.0832 73.9293 32.941C73.6731 32.7966 73.4718 32.5798 73.3253 32.2909C73.1789 31.9998 73.1058 31.6329 73.1058 31.1905V27.8859H73.9155V31.1363C73.9155 31.5156 74.023 31.818 74.238 32.0437C74.4554 32.2695 74.7322 32.3823 75.0686 32.3823C75.2698 32.3823 75.4745 32.3315 75.6827 32.2299C75.8932 32.1284 76.0693 31.9726 76.2112 31.7627C76.3553 31.5528 76.4274 31.2853 76.4274 30.9603ZM82.4538 29.0507L81.7262 29.2538C81.6805 29.1342 81.613 29.0179 81.5238 28.905C81.4368 28.79 81.318 28.6952 81.1669 28.6207C81.016 28.5462 80.8227 28.5089 80.587 28.5089C80.2645 28.5089 79.9957 28.5823 79.7807 28.7291C79.5679 28.8734 79.4616 29.0575 79.4616 29.2809C79.4616 29.4795 79.5347 29.6364 79.6811 29.7516C79.8276 29.8667 80.0563 29.9626 80.3674 30.0393L81.1498 30.2289C81.621 30.3418 81.9722 30.5144 82.2033 30.747C82.4343 30.9772 82.5498 31.2741 82.5498 31.6374C82.5498 31.9354 82.4629 32.2018 82.289 32.4365C82.1174 32.6713 81.8773 32.8563 81.5685 32.9917C81.2596 33.1272 80.9005 33.1949 80.491 33.1949C79.9534 33.1949 79.5084 33.0798 79.1562 32.8495C78.8039 32.6194 78.5808 32.283 78.487 31.8406L79.2556 31.651C79.3289 31.9308 79.4672 32.1408 79.6709 32.2807C79.8767 32.4207 80.1456 32.4906 80.4773 32.4906C80.8548 32.4906 81.1544 32.4117 81.3763 32.2537C81.6005 32.0934 81.7125 31.9015 81.7125 31.6781C81.7125 31.4974 81.6484 31.3462 81.5204 31.2243C81.3923 31.1003 81.1955 31.0077 80.9302 30.9467L80.0518 30.7436C79.5691 30.6308 79.2145 30.4558 78.988 30.2187C78.7638 29.9795 78.6518 29.6805 78.6518 29.3215C78.6518 29.0281 78.7353 28.7685 78.9022 28.5428C79.0715 28.317 79.3014 28.1399 79.592 28.0112C79.8848 27.8826 80.2165 27.8182 80.587 27.8182C81.1087 27.8182 81.5181 27.9311 81.8155 28.1568C82.1152 28.3826 82.3279 28.6804 82.4538 29.0507ZM86.0609 27.8859V28.5631H83.3295V27.8859H86.0609ZM84.1257 26.6399H84.9355V31.5968C84.9355 31.8226 84.9687 31.9918 85.035 32.1046C85.1036 32.2153 85.1905 32.2898 85.2957 32.3282C85.4032 32.3642 85.5165 32.3823 85.6355 32.3823C85.7247 32.3823 85.798 32.3778 85.8551 32.3688C85.9123 32.3575 85.9581 32.3484 85.9923 32.3417L86.1571 33.0595C86.1021 33.0798 86.0256 33.1001 85.9271 33.1205C85.8288 33.1431 85.7041 33.1543 85.5531 33.1543C85.3243 33.1543 85.1002 33.1058 84.8806 33.0087C84.6632 32.9117 84.4826 32.7638 84.3384 32.5652C84.1966 32.3665 84.1257 32.116 84.1257 31.8135V26.6399ZM89.4323 33.1949C88.9244 33.1949 88.4864 33.0843 88.1181 32.8631C87.752 32.6397 87.4696 32.3282 87.2705 31.9287C87.0738 31.5268 86.9755 31.0596 86.9755 30.5269C86.9755 29.9941 87.0738 29.5247 87.2705 29.1184C87.4696 28.7099 87.7464 28.3915 88.101 28.1636C88.4578 27.9334 88.8741 27.8182 89.35 27.8182C89.6244 27.8182 89.8956 27.8634 90.1632 27.9536C90.4308 28.0439 90.6745 28.1907 90.894 28.3938C91.1137 28.5947 91.2888 28.8611 91.4191 29.1929C91.5495 29.5247 91.6147 29.9332 91.6147 30.4185V30.7571H87.5519V30.0664H90.7912C90.7912 29.773 90.7317 29.5111 90.6127 29.2809C90.496 29.0507 90.3291 28.8689 90.1117 28.7358C89.8967 28.6026 89.6428 28.536 89.35 28.536C89.0274 28.536 88.7483 28.615 88.5127 28.773C88.2793 28.9288 88.0998 29.1319 87.974 29.3825C87.8482 29.633 87.7853 29.9017 87.7853 30.1883V30.6488C87.7853 31.0415 87.8539 31.3745 87.9912 31.6476C88.1307 31.9184 88.324 32.125 88.5711 32.2672C88.8181 32.4072 89.1052 32.4771 89.4323 32.4771C89.6451 32.4771 89.8373 32.4478 90.0089 32.3891C90.1827 32.3282 90.3325 32.2379 90.4584 32.1183C90.5841 31.9964 90.6813 31.8452 90.75 31.6645L91.5324 31.8812C91.45 32.143 91.3116 32.3733 91.1171 32.5719C90.9227 32.7683 90.6824 32.9218 90.3966 33.0324C90.1106 33.1408 89.7892 33.1949 89.4323 33.1949ZM94.8368 33.1949C94.3976 33.1949 94.0097 33.0855 93.6735 32.8664C93.3373 32.6453 93.0742 32.3338 92.8843 31.9321C92.6944 31.528 92.5995 31.0505 92.5995 30.4998C92.5995 29.9536 92.6944 29.4795 92.8843 29.0777C93.0742 28.676 93.3384 28.3656 93.6769 28.1466C94.0155 27.9277 94.4067 27.8182 94.8505 27.8182C95.1936 27.8182 95.4647 27.8747 95.6638 27.9876C95.865 28.0981 96.0183 28.2245 96.1236 28.3668C96.2311 28.5066 96.3145 28.6218 96.3741 28.7121H96.4427V26.1523H97.2525V33.0866H96.4701V32.2875H96.3741C96.3145 32.3823 96.2299 32.5019 96.1202 32.6464C96.0103 32.7886 95.8536 32.9162 95.65 33.029C95.4465 33.1397 95.1753 33.1949 94.8368 33.1949ZM94.9466 32.4771C95.2714 32.4771 95.5459 32.3936 95.7701 32.2265C95.9943 32.0573 96.1647 31.8237 96.2814 31.5257C96.3981 31.2255 96.4564 30.879 96.4564 30.4863C96.4564 30.0981 96.3992 29.7583 96.2848 29.4671C96.1704 29.1737 96.0011 28.9457 95.7769 28.7831C95.5527 28.6184 95.2759 28.536 94.9466 28.536C94.6035 28.536 94.3175 28.623 94.0888 28.7968C93.8622 28.9683 93.6919 29.2019 93.5775 29.4976C93.4653 29.791 93.4093 30.1206 93.4093 30.4863C93.4093 30.8565 93.4666 31.1927 93.5809 31.4953C93.6976 31.7954 93.8691 32.0348 94.0956 32.213C94.3243 32.3891 94.608 32.4771 94.9466 32.4771ZM101.964 33.0866H101.072L103.652 26.1523H104.53L107.111 33.0866H106.219L104.119 27.2494H104.064L101.964 33.0866ZM102.293 30.3779H105.889V31.1228H102.293V30.3779ZM109.056 26.1523V33.0866H108.206V26.1523H109.056ZM113.48 33.0866V26.1523H115.855C116.406 26.1523 116.857 26.2506 117.207 26.4469C117.559 26.6411 117.82 26.904 117.989 27.2359C118.159 27.5677 118.243 27.9378 118.243 28.3464C118.243 28.755 118.159 29.1263 117.989 29.4603C117.822 29.7944 117.564 30.0608 117.214 30.2594C116.864 30.4558 116.415 30.554 115.869 30.554H114.167V29.8091H115.841C116.219 29.8091 116.522 29.7448 116.751 29.6161C116.979 29.4875 117.145 29.3137 117.248 29.0946C117.353 28.8734 117.406 28.6241 117.406 28.3464C117.406 28.0688 117.353 27.8205 117.248 27.6016C117.145 27.3825 116.978 27.211 116.747 27.0868C116.516 26.9605 116.21 26.8972 115.828 26.8972H114.331V33.0866H113.48ZM121.055 33.2085C120.721 33.2085 120.418 33.1464 120.146 33.0222C119.874 32.8959 119.658 32.7141 119.497 32.4771C119.337 32.2379 119.257 31.9489 119.257 31.6103C119.257 31.3124 119.317 31.0709 119.436 30.8858C119.555 30.6985 119.714 30.5517 119.913 30.4456C120.112 30.3396 120.331 30.2605 120.571 30.2086C120.814 30.1544 121.058 30.1116 121.302 30.0799C121.623 30.0393 121.882 30.0089 122.081 29.9886C122.283 29.966 122.429 29.9287 122.52 29.8768C122.614 29.8249 122.661 29.7347 122.661 29.606V29.5788C122.661 29.2448 122.568 28.9852 122.383 28.8002C122.2 28.615 121.922 28.5224 121.549 28.5224C121.163 28.5224 120.86 28.606 120.64 28.773C120.42 28.94 120.266 29.1184 120.177 29.308L119.408 29.0371C119.545 28.7211 119.728 28.475 119.957 28.2991C120.188 28.1207 120.44 27.9966 120.712 27.9266C120.987 27.8543 121.257 27.8182 121.522 27.8182C121.691 27.8182 121.886 27.8385 122.105 27.8792C122.327 27.9176 122.541 27.9977 122.747 28.1196C122.955 28.2415 123.128 28.4254 123.265 28.6715C123.402 28.9175 123.471 29.2471 123.471 29.6601V33.0866H122.661V32.3823H122.62C122.565 32.4952 122.474 32.6159 122.345 32.7447C122.217 32.8733 122.047 32.9828 121.834 33.0731C121.621 33.1633 121.362 33.2085 121.055 33.2085ZM121.179 32.4906C121.499 32.4906 121.769 32.4286 121.989 32.3045C122.21 32.1803 122.377 32.02 122.489 31.8237C122.604 31.6273 122.661 31.4207 122.661 31.2041V30.4727C122.627 30.5133 122.551 30.5506 122.435 30.5844C122.32 30.6161 122.188 30.6443 122.037 30.669C121.888 30.6916 121.743 30.712 121.601 30.73C121.461 30.7458 121.348 30.7594 121.261 30.7707C121.051 30.7978 120.854 30.8417 120.671 30.9027C120.49 30.9613 120.344 31.0505 120.232 31.1701C120.122 31.2876 120.067 31.4478 120.067 31.651C120.067 31.9287 120.171 32.1386 120.379 32.2807C120.59 32.4207 120.856 32.4906 121.179 32.4906ZM124.95 33.0866V27.8859H125.731V28.6715H125.786C125.883 28.4142 126.057 28.2054 126.307 28.0451C126.559 27.8848 126.843 27.8047 127.159 27.8047C127.219 27.8047 127.293 27.8058 127.382 27.8081C127.47 27.8104 127.539 27.8138 127.584 27.8182V28.6308C127.557 28.6241 127.494 28.6139 127.396 28.6003C127.299 28.5846 127.198 28.5766 127.09 28.5766C126.834 28.5766 126.606 28.6297 126.404 28.7358C126.205 28.8396 126.047 28.9841 125.931 29.1692C125.816 29.3519 125.759 29.5607 125.759 29.7956V33.0866H124.95ZM131.167 27.8859V28.5631H128.436V27.8859H131.167ZM129.232 26.6399H130.042V31.5968C130.042 31.8226 130.075 31.9918 130.141 32.1046C130.209 32.2153 130.296 32.2898 130.401 32.3282C130.509 32.3642 130.623 32.3823 130.741 32.3823C130.83 32.3823 130.904 32.3778 130.961 32.3688C131.018 32.3575 131.064 32.3484 131.098 32.3417L131.262 33.0595C131.208 33.0798 131.131 33.1001 131.032 33.1205C130.934 33.1431 130.81 33.1543 130.659 33.1543C130.43 33.1543 130.205 33.1058 129.986 33.0087C129.769 32.9117 129.588 32.7638 129.445 32.5652C129.303 32.3665 129.232 32.116 129.232 31.8135V26.6399ZM133.195 29.9581V33.0866H132.385V27.8859H133.167V28.6985H133.236C133.36 28.4345 133.547 28.2223 133.799 28.062C134.05 27.8994 134.375 27.8182 134.773 27.8182C135.13 27.8182 135.442 27.8904 135.71 28.0349C135.977 28.1772 136.185 28.3938 136.335 28.685C136.483 28.9739 136.557 29.3396 136.557 29.782V33.0866H135.747V29.8362C135.747 29.4276 135.64 29.1094 135.425 28.8814C135.211 28.6511 134.914 28.536 134.54 28.536C134.281 28.536 134.05 28.5914 133.847 28.7019C133.645 28.8126 133.486 28.9739 133.37 29.1861C133.253 29.3983 133.195 29.6556 133.195 29.9581ZM140.247 33.1949C139.739 33.1949 139.301 33.0843 138.933 32.8631C138.567 32.6397 138.284 32.3282 138.085 31.9287C137.888 31.5268 137.79 31.0596 137.79 30.5269C137.79 29.9941 137.888 29.5247 138.085 29.1184C138.284 28.7099 138.561 28.3915 138.915 28.1636C139.273 27.9334 139.688 27.8182 140.164 27.8182C140.439 27.8182 140.71 27.8634 140.978 27.9536C141.245 28.0439 141.489 28.1907 141.709 28.3938C141.928 28.5947 142.103 28.8611 142.234 29.1929C142.365 29.5247 142.429 29.9332 142.429 30.4185V30.7571H138.366V30.0664H141.606C141.606 29.773 141.546 29.5111 141.428 29.2809C141.31 29.0507 141.144 28.8689 140.926 28.7358C140.711 28.6026 140.458 28.536 140.164 28.536C139.843 28.536 139.562 28.615 139.328 28.773C139.094 28.9288 138.914 29.1319 138.788 29.3825C138.663 29.633 138.6 29.9017 138.6 30.1883V30.6488C138.6 31.0415 138.668 31.3745 138.805 31.6476C138.946 31.9184 139.139 32.125 139.386 32.2672C139.633 32.4072 139.92 32.4771 140.247 32.4771C140.46 32.4771 140.652 32.4478 140.824 32.3891C140.997 32.3282 141.148 32.2379 141.272 32.1183C141.398 31.9964 141.496 31.8452 141.565 31.6645L142.348 31.8812C142.264 32.143 142.126 32.3733 141.932 32.5719C141.737 32.7683 141.497 32.9218 141.211 33.0324C140.925 33.1408 140.603 33.1949 140.247 33.1949ZM143.661 33.0866V27.8859H144.444V28.6715H144.499C144.594 28.4142 144.768 28.2054 145.02 28.0451C145.272 27.8848 145.556 27.8047 145.871 27.8047C145.93 27.8047 146.005 27.8058 146.094 27.8081C146.183 27.8104 146.251 27.8138 146.297 27.8182V28.6308C146.269 28.6241 146.207 28.6139 146.107 28.6003C146.012 28.5846 145.911 28.5766 145.803 28.5766C145.546 28.5766 145.317 28.6297 145.117 28.7358C144.917 28.8396 144.76 28.9841 144.642 29.1692C144.528 29.3519 144.471 29.5607 144.471 29.7956V33.0866H143.661Z" fill="black"/>
</g>
<defs>
<clipPath id="clip0_3372_3147">
<rect width="148" height="35" fill="black" transform="translate(0.5 0.5)"/>
</clipPath>
</defs>
</svg>
